<svg xmlns="http://www.w3.org/2000/svg" width="48" height="48" viewBox="0 0 48 48">
  <rect width="48" height="48" rx="14" fill="#237E45"/>
  <path d="M37 22c0 7-6 12-13 12-2 0-4 0-6-1l-7 4 2-8c-2-2-3-4-3-7 0-7 6-12 14-12s13 5 13 12Z" fill="#F0FFF3"/>
  <g fill="#237E45">
    <circle cx="17" cy="22" r="1.8"/>
    <circle cx="23.5" cy="22" r="1.8"/>
    <circle cx="30" cy="22" r="1.8"/>
  </g>
  <circle cx="37" cy="37" r="10" fill="#B9F29A" stroke="#19191C" stroke-width="1"/>
  <path d="m38 30-6 8h5l-1 6 7-9h-5z" fill="#244A2D"/>
</svg>
